<?xml version="1.0" standalone="no"?>
<!DOCTYPE svg PUBLIC "-//W3C//DTD SVG 20010904//EN"
 "http://www.w3.org/TR/2001/REC-SVG-20010904/DTD/svg10.dtd">
<svg version="1.0" xmlns="http://www.w3.org/2000/svg"
 width="1920.000000pt" height="334.000000pt" viewBox="0 0 1920.000000 334.000000"
 preserveAspectRatio="xMidYMid meet">
<metadata>
Created by potrace 1.15, written by Peter Selinger 2001-2017
</metadata>
<g transform="translate(0.000000,334.000000) scale(0.100000,-0.100000)"
fill="#000000" stroke="none">
<path d="M1505 3294 c-218 -29 -355 -70 -540 -159 -396 -191 -707 -555 -829
-970 -50 -172 -67 -271 -73 -435 -14 -374 101 -734 333 -1043 121 -162 335
-343 524 -444 139 -74 348 -143 514 -170 128 -20 453 -13 566 12 211 47 413
132 583 246 118 80 126 87 252 214 226 227 368 497 436 827 19 93 20 127 16
343 -5 251 -11 296 -67 467 -21 65 -23 69 -59 150 -12 26 -21 51 -21 54 0 15
-96 174 -152 251 -58 82 -205 238 -283 301 -190 155 -430 270 -681 327 -102
23 -146 28 -304 30 -102 2 -198 2 -215 -1z m245 -895 c221 -19 360 -44 530
-95 268 -80 503 -191 535 -254 18 -35 19 -80 3 -115 -13 -28 -81 -65 -121 -65
-13 0 -77 27 -143 60 -219 109 -437 167 -769 205 -166 19 -513 19 -670 1 -135
-16 -139 -17 -286 -53 -122 -30 -147 -27 -195 21 -56 56 -57 109 -4 169 38 44
114 67 355 108 155 26 565 36 765 18z m-61 -549 c271 -41 444 -89 648 -176
250 -107 314 -174 248 -259 -47 -62 -69 -61 -202 5 -155 76 -178 86 -293 125
-227 76 -379 98 -685 98 -260 0 -341 -9 -503 -53 -98 -27 -125 -26 -164 8 -27
25 -31 36 -31 75 0 39 4 51 27 71 40 33 194 75 391 104 84 13 485 14 564 2z
m-2 -525 c233 -33 424 -93 598 -188 98 -53 125 -77 125 -112 0 -32 -46 -85
-75 -85 -12 0 -59 21 -103 46 -85 48 -243 114 -273 114 -10 0 -20 4 -23 9 -3
5 -20 11 -38 14 -18 3 -55 11 -83 17 -27 6 -124 18 -214 27 -154 16 -175 16
-355 -1 -255 -23 -279 -26 -290 -37 -6 -5 -26 -9 -46 -9 -20 0 -41 -5 -47 -11
-9 -9 -20 -7 -45 8 -59 34 -64 109 -9 137 34 18 193 51 336 70 137 19 416 19
542 1z"/>
<path d="M11553 3261 c-49 -51 -70 -78 -76 -94 -4 -10 -7 -687 -7 -1505 l-1
-1487 33 -38 c52 -61 72 -67 207 -67 l120 0 51 50 50 49 0 1504 0 1505 -52 51
-51 51 -129 0 c-112 0 -130 -2 -145 -19z"/>
<path d="M17442 3061 c-15 -16 -32 -35 -39 -42 -7 -8 -19 -20 -28 -27 -13 -11
-15 -152 -15 -1318 0 -1464 -8 -1327 78 -1384 43 -28 51 -30 147 -30 120 0
159 13 204 67 l31 38 0 1310 0 1311 -50 52 -50 52 -126 0 -126 0 -26 -29z"/>
<path d="M12828 3028 l-48 -52 -2 -1305 c-2 -1056 -1 -1310 10 -1327 7 -12 31
-35 54 -50 38 -27 50 -29 146 -32 135 -5 182 8 227 61 l35 41 0 1306 0 1307
-49 51 -50 52 -137 0 -138 0 -48 -52z"/>
<path d="M8253 2830 l-53 -50 0 -1114 0 -1115 56 -45 56 -46 115 0 c125 0 139
4 196 58 l37 36 0 1116 0 1116 -48 47 -48 47 -129 0 -130 0 -52 -50z"/>
<path d="M12177 2831 l-47 -48 0 -1118 c-1 -818 2 -1121 11 -1131 6 -7 32 -27
57 -44 44 -29 49 -30 164 -30 l118 0 55 53 55 53 -2 1111 -3 1110 -50 46 -50
46 -130 1 -131 0 -47 -49z"/>
<path d="M13485 2829 l-50 -52 -2 -1113 -3 -1114 58 -45 57 -45 122 0 122 0
51 48 51 47 0 1114 -1 1115 -47 48 -47 48 -131 0 -131 0 -49 -51z"/>
<path d="M16100 2832 l-50 -47 0 -1119 c-1 -818 2 -1122 11 -1132 6 -7 32 -27
57 -44 44 -29 49 -30 164 -30 l119 0 55 51 54 52 0 1108 0 1108 -52 51 -51 50
-129 0 -129 0 -49 -48z"/>
<path d="M16755 2829 l-50 -52 -2 -1113 -3 -1114 58 -45 57 -45 122 0 122 0
53 49 53 49 3 1093 c1 602 0 1104 -3 1116 -3 11 -26 42 -52 67 l-48 46 -130 0
-131 0 -49 -51z"/>
<path d="M5003 2549 c-18 -12 -33 -24 -33 -29 0 -4 -9 -10 -20 -13 -20 -5 -20
-16 -22 -829 -3 -860 -3 -858 37 -858 7 0 18 -7 25 -15 10 -12 41 -15 164 -15
l151 0 40 34 40 34 3 778 c2 429 0 798 -3 821 -5 37 -12 46 -60 77 l-53 36
-119 0 c-102 0 -122 -3 -150 -21z"/>
<path d="M5663 2549 c-18 -12 -33 -24 -33 -29 0 -4 -8 -10 -19 -13 -13 -3 -20
-18 -25 -55 -4 -28 -6 -399 -6 -824 1 -693 3 -775 17 -790 9 -10 22 -18 28
-18 7 0 18 -7 25 -15 10 -12 41 -15 164 -15 l151 0 40 34 40 34 3 758 c2 418
0 787 -3 821 -6 62 -7 62 -60 98 l-53 35 -119 0 c-102 0 -122 -3 -150 -21z"/>
<path d="M8943 2549 c-18 -12 -33 -24 -33 -29 0 -4 -8 -10 -19 -13 -12 -3 -21
-17 -25 -40 -5 -26 -8 -1481 -4 -1597 1 -19 27 -50 43 -50 7 0 18 -7 25 -15
10 -12 41 -15 162 -15 l150 0 39 31 39 31 0 823 0 823 -54 36 -54 36 -119 0
c-102 0 -122 -3 -150 -21z"/>
<path d="M10876 2507 l-56 -54 0 -781 0 -782 53 -50 52 -50 128 0 128 0 47 44
47 45 3 785 2 785 -57 55 -57 56 -116 0 -117 0 -57 -53z"/>
<path d="M18068 2506 l-58 -53 0 -778 0 -778 53 -54 54 -53 127 0 127 0 49 46
50 47 0 788 c0 713 -2 789 -16 801 -9 7 -34 30 -56 51 l-39 37 -117 0 -117 -1
-57 -53z"/>
<path d="M6320 2345 c-14 -8 -35 -19 -46 -26 -15 -7 -24 -25 -28 -51 -4 -23
-6 -310 -6 -638 l1 -598 47 -23 c42 -22 58 -24 186 -24 129 0 144 2 177 22 31
20 37 30 43 69 8 61 8 1147 -1 1197 -5 33 -12 41 -54 63 -44 22 -61 24 -171
24 -89 0 -130 -4 -148 -15z"/>
<path d="M6950 2141 c-45 -18 -45 -19 -52 -77 -4 -33 -7 -235 -6 -451 l1 -392
26 -10 c71 -26 102 -31 201 -31 99 0 181 15 218 39 11 7 14 93 13 451 0 244
-3 446 -8 450 -4 4 -27 14 -51 23 -62 25 -280 23 -342 -2z"/>
<path d="M10220 2141 c-41 -17 -46 -22 -52 -62 -4 -24 -7 -227 -6 -451 l0
-407 27 -9 c71 -27 103 -32 207 -32 89 0 125 4 167 20 l54 20 7 62 c8 79 6
728 -2 792 -7 46 -9 49 -52 67 -65 26 -285 26 -350 0z"/>
<path d="M14140 2141 l-45 -19 -5 -448 c-3 -294 -2 -452 5 -456 56 -42 296
-52 388 -18 l54 20 7 53 c8 70 7 762 -2 811 -6 34 -12 41 -52 57 -65 26 -285
26 -350 0z"/>
<path d="M15453 2142 c-23 -9 -44 -20 -47 -23 -4 -3 -7 -207 -9 -452 l-2 -447
25 -9 c98 -38 286 -44 373 -11 l54 20 7 62 c8 80 6 740 -2 797 -6 40 -10 45
-52 62 -63 25 -285 26 -347 1z"/>
<path d="M4323 1957 l-42 -10 -3 -273 c-3 -236 -1 -275 12 -281 27 -12 353
-16 396 -4 l41 11 6 67 c9 88 9 309 1 405 l-7 76 -55 11 c-67 13 -291 12 -349
-2z"/>
<path d="M7593 1957 l-42 -10 -3 -273 c-3 -236 -1 -275 12 -281 27 -12 353
-16 396 -4 l41 11 6 67 c9 88 9 309 1 405 l-7 76 -55 11 c-67 13 -291 12 -349
-2z"/>
<path d="M9564 1958 l-42 -10 -7 -86 c-4 -47 -6 -171 -4 -274 3 -155 7 -189
19 -195 27 -12 353 -16 396 -4 l41 11 6 67 c9 88 9 309 1 405 l-7 76 -55 11
c-67 13 -291 12 -348 -1z"/>
<path d="M14808 1952 l-56 -16 -7 -89 c-4 -49 -6 -172 -4 -273 3 -151 7 -185
19 -191 27 -12 353 -16 396 -4 l41 11 6 67 c9 88 9 309 1 405 l-7 76 -51 12
c-80 20 -270 21 -338 2z"/>
<path d="M18750 1954 c-19 -7 -42 -13 -51 -13 -24 -1 -32 -96 -28 -343 3 -173
7 -209 19 -215 27 -12 353 -16 396 -4 l41 11 6 67 c9 87 9 309 1 405 l-7 75
-72 16 c-85 20 -254 21 -305 1z"/>
</g>
</svg>
